<svg fill="none" xmlns="http://www.w3.org/2000/svg" width="512" height="512" viewBox="-14 -16 141 140">
  <path fill="#00A671" d="M55.5 0A55.6 55.6 0 000 55.3a56 56 0 0042.7 53.9 2 2 0 002.3-2V92.7c0-1 1-2 2-2h17a2 2 0 012 2v14.7a2 2 0 002.4 1.9 56 56 0 0042.6-54C111 24.8 86 0 55.5 0zM82 94V72h4.4a2 2 0 001.2-3.6l-7.8-6.1a2 2 0 01-.8-1.6v-11a2 2 0 00-2-2h-6a2 2 0 00-2 2v4.7l-12.5-9.9a2 2 0 00-2.4 0L23.2 68a2 2 0 001.2 3.6H29V94A47.2 47.2 0 0155.7 8a47 47 0 0146.9 47.4c0 16-7.6 30-20.6 38.6z"/>
</svg>